<mxfile host="app.diagrams.net" modified="2021-03-25T01:37:28.604Z" agent="5.0 (Windows NT 10.0; Win64; x64) AppleWebKit/537.36 (KHTML, like Gecko) Chrome/89.0.4389.90 Safari/537.36" etag="lhm4UhBIFg2NKWH5JUNO" version="14.5.1" type="github">
  <diagram id="QW8w5Bt1t6qifFjIvAK8" name="Page-1">
    <mxGraphModel dx="1422" dy="706" grid="1" gridSize="10" guides="1" tooltips="1" connect="1" arrows="1" fold="1" page="1" pageScale="1" pageWidth="827" pageHeight="1169" math="0" shadow="0">
      <root>
        <mxCell id="0" />
        <mxCell id="1" parent="0" />
        <mxCell id="Bz-eQqFB0bVjf4XRfLj9-3" value="" style="rounded=0;whiteSpace=wrap;html=1;sketch=1;shadow=0;" vertex="1" parent="1">
          <mxGeometry x="300" y="90" width="260" height="140" as="geometry" />
        </mxCell>
        <mxCell id="Bz-eQqFB0bVjf4XRfLj9-4" value="" style="rounded=0;whiteSpace=wrap;html=1;sketch=1;shadow=0;" vertex="1" parent="1">
          <mxGeometry x="310" y="110" width="70" height="50" as="geometry" />
        </mxCell>
        <mxCell id="Bz-eQqFB0bVjf4XRfLj9-7" value="" style="verticalLabelPosition=bottom;verticalAlign=top;html=1;shape=mxgraph.basic.smiley;shadow=0;sketch=1;" vertex="1" parent="1">
          <mxGeometry x="10" y="100" width="50" height="50" as="geometry" />
        </mxCell>
        <mxCell id="Bz-eQqFB0bVjf4XRfLj9-8" value="" style="rounded=0;whiteSpace=wrap;html=1;sketch=1;shadow=0;" vertex="1" parent="1">
          <mxGeometry x="390" y="110" width="70" height="50" as="geometry" />
        </mxCell>
        <mxCell id="Bz-eQqFB0bVjf4XRfLj9-9" value="" style="rounded=0;whiteSpace=wrap;html=1;sketch=1;shadow=0;" vertex="1" parent="1">
          <mxGeometry x="470" y="110" width="70" height="50" as="geometry" />
        </mxCell>
      </root>
    </mxGraphModel>
  </diagram>
</mxfile>
